<svg width="14" height="13" viewBox="0 0 14 13" fill="none" xmlns="http://www.w3.org/2000/svg">
<path d="M8.66785 7.32502L8.07086 6.72803L7.28564 7.51324C7.12796 7.67095 6.87224 7.67095 6.71453 7.51324L5.92931 6.72803L5.33232 7.32502L6.11753 8.11023C6.19327 8.18597 6.23583 8.28868 6.23583 8.3958C6.23583 8.50293 6.19329 8.60562 6.11753 8.68138L5.33232 9.46659L5.92931 10.0636L6.71453 9.27837C6.79338 9.19951 6.89674 9.16007 7.00007 9.16007C7.1034 9.16007 7.20679 9.19948 7.28562 9.27837L8.07083 10.0636L8.66782 9.46659L7.88261 8.68138C7.80687 8.60564 7.76431 8.50293 7.76431 8.3958C7.76431 8.28868 7.80685 8.18599 7.88261 8.11023L8.66785 7.32502Z" fill="#BCC9DC"/>
<path d="M12.7885 2.69274H7.22623L5.69536 0.192931C5.62194 0.0730692 5.49153 0 5.35096 0H1.21154C0.543496 0 0 0.543496 0 1.21154V11.4423C0 12.1103 0.543496 12.6538 1.21154 12.6538H12.7885C13.4565 12.6538 14 12.1103 14 11.4423V3.90428C14 3.23623 13.4565 2.69274 12.7885 2.69274ZM9.52447 9.18093C9.6002 9.25667 9.64277 9.35938 9.64277 9.4665C9.64277 9.5736 9.60023 9.67631 9.52447 9.75205L8.35633 10.9202C8.27747 10.999 8.17409 11.0384 8.07078 11.0385C7.96743 11.0385 7.86407 10.999 7.78524 10.9202L7 10.135L6.21479 10.9202C6.0571 11.0779 5.80138 11.0779 5.64367 10.9202L4.47553 9.75208C4.3998 9.67634 4.35723 9.57363 4.35723 9.46653C4.35723 9.3594 4.39977 9.25672 4.47553 9.18096L5.26074 8.39575L4.47553 7.61053C4.3998 7.5348 4.35723 7.43209 4.35723 7.32496C4.35723 7.21786 4.39977 7.11515 4.47553 7.03941L5.64367 5.8713C5.80138 5.71359 6.0571 5.71361 6.21479 5.8713L7 6.65649L7.78521 5.87128C7.9429 5.71356 8.19862 5.71356 8.35633 5.87128L9.52447 7.03939C9.6002 7.11512 9.64277 7.21783 9.64277 7.32493C9.64277 7.43206 9.60023 7.53475 9.52447 7.61051L8.73926 8.39572L9.52447 9.18093Z" fill="#BCC9DC"/>
<path d="M12.7886 1.88516V1.75011C12.7886 1.08207 12.2451 0.538574 11.577 0.538574H6.85417L7.67883 1.88516H12.7886Z" fill="#BCC9DC"/>
</svg>
