<svg width="14" height="12" viewBox="0 0 14 12" fill="none" xmlns="http://www.w3.org/2000/svg">
<path d="M13.7755 1.28563C13.5424 1.12907 13.2265 1.19112 13.0698 1.42427L11.6701 3.50854C11.5165 3.43179 11.3433 3.38843 11.1599 3.38843H10.3972C10.2147 3.38843 10.0423 3.43138 9.88917 3.50739L8.49028 1.42432C8.33363 1.19107 8.01778 1.12912 7.78463 1.28567C7.55147 1.44227 7.48943 1.75817 7.64598 1.99132L9.26127 4.39661C9.24936 4.49712 9.25449 11.1752 9.25449 11.1752C9.25449 11.5263 9.53907 11.8108 9.89013 11.8108C10.2412 11.8108 10.5258 11.5263 10.5258 11.1752V8.31471H11.0343V11.1752C11.0343 11.5263 11.3189 11.8108 11.6699 11.8108C12.021 11.8108 12.3056 11.5263 12.3056 11.1752C12.3056 8.71866 12.3087 4.50957 12.2962 4.40046L13.9141 1.99132C14.0707 1.75812 14.0087 1.44222 13.7755 1.28563Z" fill="#546378"/>
<path d="M10.7792 3.03292C11.4521 3.03292 11.9979 2.48767 11.9979 1.8143C11.9979 1.38667 11.777 1.01057 11.4432 0.79316C11.5093 0.749065 11.5846 0.708222 11.6721 0.67269C11.7137 0.655794 11.7417 0.616324 11.7439 0.571451C11.746 0.526578 11.7218 0.484589 11.6819 0.463847C11.4892 0.363753 11.2544 0.361692 11.0327 0.404184C11.0703 0.333761 11.1177 0.261827 11.1785 0.188885C11.2073 0.15436 11.2133 0.106282 11.1941 0.0657588C11.1748 0.0251899 11.1337 -0.000451856 11.0887 6.0324e-06C10.6434 0.00508859 10.2348 0.456612 10.0721 0.726629C10.0431 0.774707 10.0198 0.824938 10.0023 0.875901C9.73248 1.09944 9.56055 1.43686 9.56055 1.81425C9.56059 2.48767 10.1063 3.03292 10.7792 3.03292Z" fill="#546378"/>
<path d="M6.97374 1.28505C6.74063 1.1285 6.42473 1.19055 6.26809 1.4237L5.93658 1.9174C5.80608 1.85613 5.66079 1.84826 5.52196 1.92303C5.51344 1.92761 5.50561 1.93287 5.49751 1.93782L5.49948 1.93223C5.53441 1.83287 5.48217 1.72403 5.38281 1.68909C5.31509 1.66524 5.24361 1.68255 5.19352 1.72696C5.14883 1.09508 4.62193 0.595703 3.97833 0.595703C3.33467 0.595703 2.80778 1.09508 2.76309 1.72696C2.71291 1.68255 2.64143 1.66519 2.5738 1.68909C2.47444 1.72403 2.42219 1.83287 2.45713 1.93223L2.4591 1.93782C2.45099 1.93283 2.44312 1.92756 2.43469 1.92303C2.29591 1.84826 2.15053 1.85613 2.02003 1.91735L1.68852 1.4237C1.53192 1.19045 1.21589 1.12846 0.982868 1.28505C0.749711 1.44165 0.687667 1.75755 0.844219 1.99071L1.42624 2.85735C1.39488 3.01807 1.39414 3.18186 1.44822 3.33021C1.4636 3.37243 1.50211 3.40187 1.54685 3.40558C1.59168 3.40929 1.63444 3.38662 1.65656 3.34757C1.6719 3.3205 1.68774 3.29518 1.70381 3.27073L2.45951 4.39599C2.44806 4.49302 2.45118 4.40254 2.45118 6.02997L1.75894 8.85221C1.72666 8.98385 1.75661 9.12305 1.84031 9.22969C1.92392 9.33638 2.05199 9.39865 2.18757 9.39865H2.45273V11.1745C2.45273 11.5256 2.73731 11.8102 3.08838 11.8102C3.43944 11.8102 3.72402 11.5256 3.72402 11.1745V9.39865H4.23255V11.1745C4.23255 11.5256 4.51712 11.8102 4.86819 11.8102C5.21925 11.8102 5.50383 11.5256 5.50383 11.1745V9.39865H5.76601C5.90159 9.39865 6.02967 9.33638 6.11328 9.22969C6.19698 9.12305 6.22692 8.98385 6.19464 8.85221L5.50236 6.02969H5.50232C5.50232 4.40185 5.50525 4.49407 5.49449 4.39984L6.2528 3.27064C6.26891 3.29509 6.28471 3.32041 6.30005 3.34747C6.32217 3.38658 6.36498 3.40924 6.40976 3.40549C6.45459 3.40178 6.49305 3.37234 6.50843 3.33012C6.56251 3.18176 6.56173 3.01798 6.53037 2.85726L7.11239 1.99061C7.26894 1.75755 7.2069 1.44165 6.97374 1.28505ZM4.86842 3.50796C4.71479 3.43122 4.54158 3.38786 4.35815 3.38786H3.5954C3.41293 3.38786 3.24053 3.43081 3.08746 3.50677L2.53543 2.68486C2.57897 2.65785 2.61309 2.62754 2.63406 2.58857C2.65027 2.55844 2.66304 2.5274 2.67248 2.49585C2.70833 2.53449 2.75879 2.5572 2.81186 2.5572C2.83283 2.5572 2.85421 2.55372 2.87509 2.54635C2.9103 2.53394 2.93924 2.51197 2.96085 2.48468C3.17895 2.81481 3.55318 3.03263 3.97833 3.03263C4.40348 3.03263 4.77771 2.81481 4.99575 2.48468C5.01737 2.51197 5.04631 2.53394 5.08156 2.54635C5.10249 2.55372 5.12383 2.5572 5.1448 2.5572C5.19787 2.5572 5.24833 2.53445 5.28418 2.49585C5.29361 2.52735 5.30634 2.55844 5.3226 2.58857C5.34357 2.62749 5.37768 2.6578 5.42122 2.68482L4.86842 3.50796Z" fill="#546378"/>
</svg>
